<svg width="84" height="84" viewBox="0 0 84 84" fill="none" xmlns="http://www.w3.org/2000/svg">
<path d="M56.5891 60.4628C56.6779 60.7255 56.8467 60.9538 57.0719 61.1156C57.2971 61.2774 57.5674 61.3645 57.8447 61.3647C57.985 61.3902 58.1288 61.3902 58.2691 61.3647C58.602 61.2519 58.8764 61.0117 59.0323 60.6967C59.1881 60.3817 59.2126 60.0177 59.1003 59.6847L57.3319 54.3794C57.2431 54.1167 57.0743 53.8884 56.8491 53.7266C56.6238 53.5649 56.3536 53.4778 56.0763 53.4775H53.3706C53.7535 52.1922 53.9442 50.8574 53.9365 49.5163C53.9365 49.3748 53.9365 49.2156 53.9365 49.0742H61.47C61.8217 49.0742 62.1591 48.9344 62.4078 48.6857C62.6565 48.437 62.7963 48.0996 62.7963 47.7479C62.7963 47.3961 62.6565 47.0587 62.4078 46.81C62.1591 46.5613 61.8217 46.4215 61.47 46.4215H53.6359C53.3504 44.8968 52.8813 43.4123 52.2388 42.0005H56.147C56.4243 42.0003 56.6946 41.9132 56.9198 41.7514C57.145 41.5896 57.3139 41.3613 57.4026 41.0986L59.171 35.7933C59.2326 35.6238 59.2601 35.4438 59.2521 35.2636C59.2441 35.0835 59.2006 34.9066 59.1243 34.7432C59.0479 34.5798 58.9401 34.4331 58.8071 34.3114C58.674 34.1896 58.5182 34.0953 58.3487 34.0338C58.1792 33.9722 57.9992 33.9447 57.819 33.9527C57.6388 33.9607 57.462 34.0041 57.2986 34.0805C57.1352 34.1569 56.9885 34.2646 56.8667 34.3977C56.745 34.5308 56.6507 34.6865 56.5891 34.8561L55.1213 39.2594H50.7533C49.9819 38.1311 49.0597 37.1137 48.0123 36.2354C48.4035 35.4111 48.6145 34.5128 48.6312 33.6005C48.623 32.5998 48.3871 31.614 47.9415 30.718C48.5836 30.3566 49.1344 29.8531 49.5518 29.246C49.9692 28.6389 50.2421 27.9443 50.3496 27.2155C50.4571 26.4866 50.3965 25.7428 50.1722 25.0411C49.9479 24.3393 49.566 23.6982 49.0556 23.1668C48.9528 23.0001 48.8143 22.8583 48.6501 22.7516C48.4859 22.6448 48.3001 22.5757 48.1061 22.5493C47.912 22.5228 47.7145 22.5397 47.5278 22.5986C47.341 22.6576 47.1696 22.7572 47.0259 22.8902C46.8822 23.0233 46.7697 23.1865 46.6966 23.3682C46.6235 23.5499 46.5915 23.7455 46.603 23.941C46.6144 24.1365 46.669 24.3271 46.7629 24.499C46.8567 24.6709 46.9875 24.8199 47.1458 24.9352C47.3886 25.1999 47.5627 25.5202 47.6528 25.8679C47.7428 26.2157 47.7461 26.5802 47.6623 26.9295C47.5784 27.2788 47.4101 27.6021 47.172 27.8711C46.9339 28.1401 46.6334 28.3464 46.2969 28.4721C45.1024 27.44 43.5782 26.8692 41.9996 26.8628C40.4257 26.8656 38.9058 27.4371 37.7201 28.4721C37.3819 28.348 37.0799 28.142 36.8411 27.8724C36.6022 27.6028 36.434 27.2782 36.3517 26.9276C36.2693 26.577 36.2752 26.2114 36.369 25.8636C36.4628 25.5159 36.6414 25.1969 36.8889 24.9352C37.0166 24.8098 37.1184 24.6605 37.1884 24.4957C37.2584 24.331 37.2953 24.1541 37.297 23.9751C37.2986 23.7961 37.265 23.6185 37.198 23.4525C37.131 23.2866 37.032 23.1354 36.9066 23.0076C36.7812 22.8799 36.6319 22.7781 36.4671 22.7081C36.3024 22.6381 36.1255 22.6012 35.9465 22.5996C35.7675 22.598 35.5899 22.6316 35.4239 22.6986C35.2579 22.7655 35.1067 22.8646 34.979 22.99C34.4604 23.519 34.0704 24.1603 33.8394 24.8643C33.6084 25.5682 33.5424 26.3159 33.6467 27.0494C33.751 27.7829 34.0227 28.4825 34.4408 29.0941C34.8589 29.7058 35.4122 30.213 36.0578 30.5765C35.5908 31.5153 35.3543 32.552 35.3681 33.6005C35.3694 34.5487 35.5808 35.4848 35.987 36.3415C34.9396 37.2198 34.0174 38.2372 33.246 39.3655H28.8072L27.3394 34.9622C27.2887 34.7912 27.204 34.6321 27.0904 34.4946C26.9768 34.357 26.8367 34.2438 26.6783 34.1617C26.5199 34.0796 26.3466 34.0303 26.1688 34.0167C25.9909 34.0032 25.8121 34.0256 25.6431 34.0827C25.4741 34.1399 25.3184 34.2305 25.1852 34.3492C25.0521 34.4679 24.9443 34.6123 24.8682 34.7736C24.7921 34.935 24.7494 35.11 24.7425 35.2882C24.7357 35.4665 24.7648 35.6443 24.8283 35.811L26.5967 41.1163C26.6854 41.379 26.8543 41.6073 27.0795 41.7691C27.3047 41.9308 27.575 42.018 27.8523 42.0182H31.8312C31.1887 43.43 30.7196 44.9145 30.4342 46.4392H22.547C22.1953 46.4392 21.8579 46.579 21.6092 46.8277C21.3604 47.0764 21.2207 47.4138 21.2207 47.7655C21.2207 48.1173 21.3604 48.4547 21.6092 48.7034C21.8579 48.9521 22.1953 49.0919 22.547 49.0919H30.0628C30.0628 49.2333 30.0628 49.3925 30.0628 49.534C30.0533 50.881 30.244 52.2219 30.6287 53.5129H27.8523C27.575 53.5131 27.3047 53.6002 27.0795 53.762C26.8543 53.9238 26.6854 54.1521 26.5967 54.4148L24.8283 59.7201C24.716 60.0531 24.7404 60.417 24.8963 60.732C25.0521 61.047 25.3266 61.2873 25.6594 61.4001C25.7998 61.4256 25.9435 61.4256 26.0839 61.4001C26.3612 61.3999 26.6314 61.3127 26.8566 61.151C27.0819 60.9892 27.2507 60.7609 27.3394 60.4982L28.8072 56.0948H31.8312C32.911 57.8024 34.4243 59.1931 36.2168 60.1251C38.0094 61.0571 40.017 61.497 42.035 61.4001C44.053 61.497 46.0607 61.0571 47.8532 60.1251C49.6457 59.1931 51.159 57.8024 52.2388 56.0948H55.2274L56.5891 60.4628ZM49.5154 55.1575C48.7882 56.1672 47.85 57.0065 46.7659 57.6172C45.6819 58.228 44.4779 58.5955 43.2375 58.6944V54.8215C43.1626 54.5387 42.9963 54.2885 42.7644 54.1101C42.5325 53.9316 42.2481 53.8348 41.9554 53.8348C41.6628 53.8348 41.3784 53.9316 41.1465 54.1101C40.9146 54.2885 40.7483 54.5387 40.6733 54.8215V58.6944C39.433 58.5955 38.229 58.228 37.1449 57.6172C36.0609 57.0065 35.1227 56.1672 34.3954 55.1575C34.0301 54.6381 33.7218 54.0807 33.4759 53.4952C32.9754 52.2282 32.7175 50.8785 32.7154 49.5163C32.7218 47.4418 33.1536 45.3907 33.9839 43.4897C34.8143 41.5886 36.0257 39.8781 37.5432 38.4636C37.8915 38.1727 38.2643 37.9124 38.6573 37.6855C39.0876 37.4214 39.5439 37.2021 40.019 37.0312C40.2503 36.9557 40.4867 36.8966 40.7264 36.8544C40.6986 36.9465 40.6808 37.0414 40.6733 37.1373V42.4426C40.6733 42.7944 40.8131 43.1317 41.0618 43.3804C41.3105 43.6292 41.6479 43.7689 41.9996 43.7689C42.3514 43.7689 42.6888 43.6292 42.9375 43.3804C43.1862 43.1317 43.326 42.7944 43.326 42.4426V37.1373C43.3359 37.0433 43.3359 36.9484 43.326 36.8544C43.5656 36.8966 43.802 36.9557 44.0333 37.0312C44.5084 37.2021 44.9647 37.4214 45.395 37.6855C45.7881 37.9124 46.1608 38.1727 46.5091 38.4636C48.017 39.8827 49.2185 41.5953 50.0397 43.4961C50.8608 45.3969 51.2843 47.4457 51.2839 49.5163C51.2907 50.9023 51.0326 52.2769 50.5234 53.566C50.2719 54.1209 49.9638 54.6483 49.6039 55.1399L49.5154 55.1575ZM38.0207 33.6005C38.0167 32.7882 38.2706 31.9957 38.7458 31.3369C39.0154 30.9464 39.3504 30.6054 39.7361 30.3289C40.4012 29.8688 41.1908 29.6223 41.9996 29.6223C42.8085 29.6223 43.5981 29.8688 44.2632 30.3289C44.6489 30.6054 44.9839 30.9464 45.2535 31.3369C45.7287 31.9957 45.9826 32.7882 45.9786 33.6005C45.9756 34.0407 45.8978 34.4772 45.7487 34.8914C44.578 34.3324 43.297 34.0423 41.9996 34.0423C40.7023 34.0423 39.4213 34.3324 38.2506 34.8914C38.1015 34.4772 38.0237 34.0407 38.0207 33.6005Z" fill="#FF0000" fill-opacity="0.5"/>
<path d="M42.0001 46.333C41.8189 46.3351 41.6401 46.3739 41.4743 46.4468C41.3086 46.5198 41.1593 46.6256 41.0354 46.7577C40.9115 46.8898 40.8156 47.0457 40.7535 47.2158C40.6913 47.3859 40.6642 47.5669 40.6737 47.7477V49.5162C40.6737 49.8679 40.8135 50.2053 41.0622 50.454C41.3109 50.7027 41.6483 50.8425 42.0001 50.8425C42.3518 50.8425 42.6892 50.7027 42.9379 50.454C43.1866 50.2053 43.3264 49.8679 43.3264 49.5162V47.7477C43.3359 47.5669 43.3088 47.3859 43.2467 47.2158C43.1845 47.0457 43.0886 46.8898 42.9647 46.7577C42.8409 46.6256 42.6915 46.5198 42.5258 46.4468C42.36 46.3739 42.1812 46.3351 42.0001 46.333Z" fill="#FF0000" fill-opacity="0.5"/>
<path d="M22.4585 14.1483C23.847 13.1679 25.3071 12.293 26.8265 11.5311C26.9817 11.4541 27.1201 11.3471 27.2336 11.2163C27.3471 11.0854 27.4335 10.9333 27.4878 10.7688C27.5421 10.6043 27.5632 10.4307 27.5499 10.2579C27.5365 10.0852 27.489 9.91688 27.4101 9.76266C27.2542 9.44947 26.9809 9.21056 26.6497 9.09794C26.3185 8.98533 25.9562 9.00813 25.6417 9.1614C24.0009 9.98144 22.4227 10.9213 20.92 11.9732C20.6513 12.1716 20.4686 12.4653 20.4094 12.7941C20.3502 13.1229 20.419 13.4619 20.6017 13.7416C20.7249 13.9177 20.8891 14.0612 21.0801 14.1598C21.2711 14.2584 21.4832 14.3091 21.6981 14.3075C21.9615 14.3265 22.2249 14.2713 22.4585 14.1483Z" fill="#FF0000" fill-opacity="0.5"/>
<path d="M8.3475 27.3393C7.6349 29.022 7.04391 30.7536 6.57908 32.5208C6.5336 32.6891 6.52179 32.8648 6.5443 33.0378C6.56681 33.2107 6.62321 33.3775 6.71027 33.5286C6.79733 33.6798 6.91333 33.8122 7.05165 33.9185C7.18997 34.0247 7.34788 34.1026 7.51634 34.1477H7.87002C8.15928 34.1466 8.44025 34.051 8.67012 33.8754C8.89999 33.6998 9.06615 33.4539 9.14329 33.1751C9.58633 31.5332 10.1478 29.9257 10.8233 28.365C10.964 28.0414 10.9704 27.6751 10.841 27.3468C10.7117 27.0185 10.4572 26.755 10.1336 26.6142C9.80998 26.4735 9.44372 26.4672 9.1154 26.5965C8.78707 26.7258 8.52357 26.9803 8.38286 27.3039L8.3475 27.3393Z" fill="#FF0000" fill-opacity="0.5"/>
<path d="M23.2549 70.4179C22.9678 70.2449 22.6258 70.187 22.2977 70.2559C21.9696 70.3248 21.6798 70.5153 21.4865 70.7893C21.3092 71.0753 21.2488 71.4186 21.318 71.7479C21.3871 72.0772 21.5805 72.3672 21.8579 72.5577C23.3415 73.5897 24.9023 74.5061 26.5265 75.2988C26.6973 75.3815 26.8849 75.4239 27.0747 75.4226C27.3272 75.4253 27.575 75.355 27.7884 75.2201C28.0017 75.0851 28.1715 74.8914 28.2773 74.6621C28.3519 74.5043 28.3947 74.3332 28.4031 74.1588C28.4115 73.9844 28.3854 73.81 28.3262 73.6457C28.2671 73.4814 28.1761 73.3304 28.0584 73.2013C27.9408 73.0723 27.7988 72.9677 27.6406 72.8937C26.1159 72.185 24.6495 71.3572 23.2549 70.4179Z" fill="#FF0000" fill-opacity="0.5"/>
<path d="M60.7807 13.5999C60.9993 13.75 61.2583 13.8301 61.5235 13.8298C61.8118 13.8348 62.0939 13.7458 62.3271 13.5762C62.5602 13.4066 62.7318 13.1657 62.8158 12.8898C62.8997 12.614 62.8915 12.3183 62.7923 12.0475C62.6932 11.7768 62.5085 11.5457 62.2662 11.3893C60.7406 10.3761 59.1382 9.48325 57.4738 8.71902C57.3149 8.63763 57.1411 8.58917 56.963 8.57656C56.7848 8.56394 56.606 8.58743 56.4372 8.64561C56.2683 8.70379 56.113 8.79547 55.9804 8.91515C55.8479 9.03482 55.7409 9.18003 55.6658 9.34207C55.5908 9.50411 55.5492 9.67963 55.5436 9.85812C55.538 10.0366 55.5686 10.2144 55.6334 10.3808C55.6982 10.5472 55.7959 10.6988 55.9207 10.8265C56.0455 10.9543 56.1948 11.0555 56.3597 11.1241C57.8934 11.8372 59.3713 12.6648 60.7807 13.5999Z" fill="#FF0000" fill-opacity="0.5"/>
<path d="M75.9191 33.2648C76.0422 33.282 76.1672 33.282 76.2904 33.2648C76.4576 33.2161 76.6136 33.1348 76.7494 33.0258C76.8852 32.9167 76.9982 32.782 77.082 32.6293C77.1657 32.4766 77.2186 32.3089 77.2375 32.1357C77.2564 31.9626 77.2411 31.7874 77.1923 31.6202C76.6784 29.8627 76.028 28.148 75.2471 26.4918C75.1749 26.332 75.0714 26.1883 74.9427 26.0693C74.8139 25.9503 74.6626 25.8584 74.4976 25.799C74.3327 25.7397 74.1575 25.714 73.9824 25.7237C73.8074 25.7333 73.6361 25.778 73.4786 25.8551C73.3172 25.9253 73.1718 26.0277 73.0514 26.1561C72.931 26.2846 72.8381 26.4362 72.7785 26.6019C72.7188 26.7675 72.6937 26.9436 72.7046 27.1193C72.7156 27.295 72.7623 27.4666 72.842 27.6236C73.5427 29.1656 74.1336 30.7553 74.6104 32.3806C74.7025 32.6504 74.8801 32.8828 75.1163 33.0424C75.3525 33.202 75.6344 33.2801 75.9191 33.2648Z" fill="#FF0000" fill-opacity="0.5"/>
<path d="M57.8277 74.9632C58.0289 74.965 58.2281 74.9227 58.4112 74.8394C60.0467 74.0132 61.6189 73.0675 63.1152 72.0099C63.2764 71.9187 63.4168 71.7947 63.5271 71.6459C63.6375 71.4972 63.7155 71.327 63.7561 71.1462C63.7967 70.9655 63.799 70.7783 63.7628 70.5966C63.7266 70.4149 63.6528 70.2428 63.5461 70.0914C63.4393 69.94 63.3021 69.8127 63.1431 69.7176C62.9842 69.6224 62.8071 69.5616 62.6232 69.5391C62.4394 69.5166 62.2528 69.5329 62.0756 69.5868C61.8984 69.6408 61.7345 69.7313 61.5944 69.8524C60.2115 70.8518 58.7509 71.7389 57.2264 72.5051C56.9593 72.6394 56.7455 72.86 56.6195 73.1312C56.4936 73.4023 56.4629 73.708 56.5326 73.9988C56.6022 74.2895 56.768 74.5482 57.003 74.7329C57.2381 74.9176 57.5287 75.0174 57.8277 75.0162V74.9632Z" fill="#FF0000" fill-opacity="0.5"/>
<path d="M7.69311 50.7359C7.36064 50.8421 7.08168 51.0721 6.91384 51.3781C6.746 51.6842 6.70211 52.043 6.79122 52.3805C7.31779 54.1337 7.96783 55.8475 8.73648 57.5089C8.84142 57.7401 9.01051 57.9363 9.22368 58.0742C9.43684 58.2122 9.68511 58.286 9.939 58.287C10.1345 58.2885 10.3279 58.2462 10.5049 58.1632C10.8211 58.0101 11.0648 57.7393 11.1837 57.4088C11.3027 57.0783 11.2876 56.7143 11.1415 56.3948C10.4351 54.8551 9.84396 53.265 9.37311 51.6377C9.32686 51.4652 9.24576 51.304 9.13483 51.1639C9.0239 51.0239 8.88547 50.9081 8.72809 50.8236C8.5707 50.7391 8.39767 50.6877 8.21968 50.6726C8.04168 50.6576 7.86248 50.6791 7.69311 50.7359Z" fill="#FF0000" fill-opacity="0.5"/>
<path d="M12.7507 61.8945C12.4945 62.103 12.324 62.3985 12.2718 62.7247C12.2196 63.0509 12.2893 63.3849 12.4678 63.6629C13.5407 65.1295 14.723 66.5128 16.0046 67.801C16.1199 67.9186 16.2575 68.0121 16.4093 68.0758C16.5611 68.1396 16.7241 68.1724 16.8888 68.1724C17.1567 68.1708 17.4179 68.0892 17.6391 67.9381C17.8603 67.787 18.0312 67.5732 18.1301 67.3243C18.2289 67.0753 18.2511 66.8025 18.1937 66.5408C18.1364 66.2792 18.0022 66.0406 17.8084 65.8558C16.6066 64.6545 15.4953 63.3659 14.4838 62.0006C14.2559 61.7775 13.9553 61.644 13.637 61.6246C13.3187 61.6051 13.0041 61.7009 12.7507 61.8945Z" fill="#FF0000" fill-opacity="0.5"/>
<path d="M70.4361 22.2817C70.7175 22.2804 70.9907 22.1873 71.2142 22.0164C71.4774 21.8129 71.653 21.5167 71.7056 21.1882C71.7582 20.8597 71.6836 20.5235 71.4972 20.248C70.4241 18.7926 69.2417 17.4211 67.9604 16.1453C67.7209 15.9202 67.4047 15.7949 67.0761 15.7949C66.7476 15.7949 66.4313 15.9202 66.1919 16.1453C65.9467 16.3992 65.8096 16.7384 65.8096 17.0914C65.8096 17.4444 65.9467 17.7836 66.1919 18.0375C67.382 19.227 68.4815 20.5038 69.4812 21.8573C69.7326 22.117 70.0749 22.2691 70.4361 22.2817Z" fill="#FF0000" fill-opacity="0.5"/>
<path d="M15.4034 16.7291C14.1135 18.0476 12.9309 19.4668 11.8665 20.9733C11.6857 21.2551 11.6197 21.5955 11.6822 21.9244C11.7447 22.2534 11.9309 22.5459 12.2025 22.7417C12.425 22.8995 12.6902 22.9858 12.963 22.9893C13.1864 23.0155 13.4127 22.9837 13.6203 22.897C13.8278 22.8103 14.0095 22.6715 14.1478 22.4941C15.1263 21.1053 16.2018 19.7875 17.3663 18.5505C17.6147 18.3018 17.7542 17.9647 17.7542 17.6133C17.7542 17.2618 17.6147 16.9247 17.3663 16.676C17.2384 16.5425 17.0839 16.4373 16.9128 16.367C16.7418 16.2968 16.5579 16.2631 16.3731 16.2681C16.1883 16.2731 16.0065 16.3167 15.8395 16.396C15.6725 16.4754 15.5239 16.5889 15.4034 16.7291Z" fill="#FF0000" fill-opacity="0.5"/>
<path d="M74.9102 50.7532C74.4384 52.3974 73.8473 54.0051 73.1417 55.5633C73.0687 55.7244 73.0287 55.8985 73.0239 56.0753C73.0192 56.2521 73.0498 56.428 73.1141 56.5928C73.1783 56.7576 73.2749 56.9079 73.3981 57.0348C73.5213 57.1617 73.6686 57.2626 73.8314 57.3317C73.9973 57.4088 74.1792 57.4452 74.362 57.4379C74.6213 57.4411 74.8758 57.3671 75.093 57.2254C75.3103 57.0838 75.4805 56.8807 75.5822 56.6421C76.2975 54.9604 76.8886 53.2287 77.3506 51.4606C77.4365 51.1206 77.3843 50.7604 77.2053 50.4589C77.0263 50.1573 76.7352 49.9388 76.3956 49.8513C76.0806 49.7938 75.7554 49.8539 75.4816 50.0201C75.2078 50.1863 75.0045 50.4472 74.9102 50.7532Z" fill="#FF0000" fill-opacity="0.5"/>
<path d="M67.6775 67.6422C67.8566 67.6475 68.0347 67.614 68.1996 67.5437C68.3645 67.4735 68.5122 67.3683 68.6324 67.2354C69.918 65.9131 71.1004 64.4942 72.1693 62.9912C72.3709 62.7004 72.4488 62.3414 72.3858 61.9932C72.3228 61.645 72.124 61.3361 71.8333 61.1344C71.5425 60.9327 71.1835 60.8548 70.8352 60.9178C70.487 60.9808 70.1781 61.1796 69.9764 61.4704C68.9933 62.871 67.9055 64.1952 66.7225 65.4316C66.5396 65.6167 66.4161 65.8521 66.3676 66.1078C66.3192 66.3635 66.348 66.6278 66.4505 66.8669C66.553 67.1061 66.7245 67.3093 66.9431 67.4505C67.1616 67.5918 67.4173 67.6646 67.6775 67.6599V67.6422Z" fill="#FF0000" fill-opacity="0.5"/>
<path d="M1.32632 46.863H11.9368C13.2266 46.863 14.4636 46.3507 15.3756 45.4387C16.2876 44.5266 16.8 43.2897 16.8 41.9999C16.8 40.7101 16.2876 39.4731 15.3756 38.5611C14.4636 37.6491 13.2266 37.1367 11.9368 37.1367H1.32632C0.975979 37.1413 0.64128 37.2825 0.393534 37.5303C0.145787 37.778 0.00458015 38.1127 0 38.463L0 45.5367C0.00458015 45.8871 0.145787 46.2218 0.393534 46.4695C0.64128 46.7173 0.975979 46.8585 1.32632 46.863ZM2.65263 39.7894H11.9368C12.5231 39.7894 13.0854 40.0222 13.4999 40.4368C13.9145 40.8514 14.1474 41.4136 14.1474 41.9999C14.1474 42.5861 13.9145 43.1484 13.4999 43.563C13.0854 43.9775 12.5231 44.2104 11.9368 44.2104H2.65263V39.7894Z" fill="#FF0000" fill-opacity="0.5"/>
<path d="M84.0002 45.5367V38.463C83.9956 38.1127 83.8544 37.778 83.6067 37.5303C83.3589 37.2825 83.0242 37.1413 82.6739 37.1367H72.0634C70.7736 37.1367 69.5366 37.6491 68.6246 38.5611C67.7126 39.4731 67.2002 40.7101 67.2002 41.9999C67.2002 43.2897 67.7126 44.5266 68.6246 45.4387C69.5366 46.3507 70.7736 46.863 72.0634 46.863H82.6739C83.0242 46.8585 83.3589 46.7173 83.6067 46.4695C83.8544 46.2218 83.9956 45.8871 84.0002 45.5367ZM69.8528 41.9999C69.8528 41.4136 70.0857 40.8514 70.5003 40.4368C70.9148 40.0222 71.4771 39.7894 72.0634 39.7894H81.3476V44.2104H72.0634C71.4771 44.2104 70.9148 43.9775 70.5003 43.563C70.0857 43.1484 69.8528 42.5861 69.8528 41.9999Z" fill="#FF0000" fill-opacity="0.5"/>
<path d="M38.4628 83.9998H45.5365C45.8868 83.9952 46.2215 83.854 46.4693 83.6062C46.717 83.3585 46.8582 83.0238 46.8628 82.6735V78.3585C48.4559 78.1519 50.0333 77.8387 51.5845 77.4212C51.9208 77.3299 52.2077 77.1099 52.3831 76.8088C52.5585 76.5076 52.6083 76.1496 52.5218 75.812C52.4303 75.471 52.2084 75.1798 51.904 75.0011C51.5996 74.8224 51.2371 74.7707 50.8948 74.857C49.5701 75.2163 48.2232 75.488 46.8628 75.6705V72.1337C46.8628 70.8439 46.3504 69.6069 45.4384 68.6949C44.5264 67.7829 43.2894 67.2705 41.9997 67.2705C40.7099 67.2705 39.4729 67.7829 38.5609 68.6949C37.6489 69.6069 37.1365 70.8439 37.1365 72.1337V75.6705C36.1108 75.529 35.0851 75.3522 34.0948 75.1223C33.9264 75.0802 33.7513 75.0721 33.5797 75.0984C33.4081 75.1246 33.2435 75.1848 33.0953 75.2753C32.9472 75.3658 32.8186 75.4849 32.7169 75.6256C32.6153 75.7663 32.5426 75.9259 32.5032 76.0949C32.461 76.2645 32.4526 76.4407 32.4787 76.6135C32.5048 76.7862 32.5647 76.9522 32.6551 77.1017C32.7455 77.2512 32.8645 77.3815 33.0054 77.4848C33.1462 77.5882 33.3061 77.6628 33.4759 77.7042C34.6843 77.9793 35.9061 78.1918 37.1365 78.3408V82.6735C37.1411 83.0238 37.2823 83.3585 37.53 83.6062C37.7778 83.854 38.1125 83.9952 38.4628 83.9998ZM39.7891 72.0629C39.7891 71.4767 40.022 70.9144 40.4366 70.4998C40.8511 70.0853 41.4134 69.8524 41.9997 69.8524C42.5859 69.8524 43.1482 70.0853 43.5627 70.4998C43.9773 70.9144 44.2102 71.4767 44.2102 72.0629V81.3471H39.7891V72.0629Z" fill="#FF0000" fill-opacity="0.5"/>
<path d="M45.5368 0H38.4631C38.1128 0.00458015 37.7781 0.145787 37.5303 0.393534C37.2826 0.64128 37.1414 0.975979 37.1368 1.32632V5.64126C35.563 5.85051 34.0038 6.15764 32.4682 6.56084C32.1642 6.6491 31.9019 6.84313 31.7285 7.10789C31.5551 7.37265 31.4821 7.69068 31.5227 8.00455C31.5632 8.31842 31.7147 8.60744 31.9497 8.81942C32.1847 9.03139 32.4878 9.15234 32.8042 9.16042C32.9214 9.17785 33.0406 9.17785 33.1578 9.16042C34.4662 8.80357 35.795 8.52602 37.1368 8.32926V11.8661C37.1368 13.1559 37.6492 14.3929 38.5612 15.3049C39.4732 16.2169 40.7102 16.7293 41.9999 16.7293C43.2897 16.7293 44.5267 16.2169 45.4387 15.3049C46.3507 14.3929 46.8631 13.1559 46.8631 11.8661V8.32926C47.9027 8.44736 48.9357 8.61853 49.9578 8.8421H50.2585C50.585 8.84565 50.9013 8.72864 51.1469 8.51347C51.3925 8.29831 51.5501 8.00012 51.5895 7.676C51.6289 7.35187 51.5474 7.0246 51.3605 6.75684C51.1737 6.48908 50.8946 6.29966 50.5768 6.22484C49.3566 5.94189 48.101 5.72968 46.8631 5.57053V1.32632C46.8585 0.975979 46.7173 0.64128 46.4696 0.393534C46.2218 0.145787 45.8871 0.00458015 45.5368 0V0ZM44.2105 11.9368C44.2105 12.5231 43.9776 13.0854 43.563 13.4999C43.1485 13.9145 42.5862 14.1474 41.9999 14.1474C41.4137 14.1474 40.8514 13.9145 40.4369 13.4999C40.0223 13.0854 39.7894 12.5231 39.7894 11.9368V2.65263H44.2105V11.9368Z" fill="#FF0000" fill-opacity="0.5"/>
</svg>
