<svg width="100" height="100" viewBox="0 0 100 100" fill="none" xmlns="http://www.w3.org/2000/svg">
<g filter="url(#filter0_d)">
<rect x="15" y="11" width="70" height="70" rx="10" fill="url(#paint0_linear)"/>
</g>
<path d="M75.5664 44.4961C75.5664 56.1998 64.1199 65.6875 50 65.6875C48.7401 65.6875 47.5015 65.612 46.2904 65.4661C44.0318 65.1939 41.8205 65.3398 39.8642 66.501C38.4553 67.3371 36.7146 68.2397 34.6883 68.5674C34.0587 68.6692 33.698 67.9547 34.0746 67.4401C35.9113 64.9301 36.984 62.7593 36.123 62.2972C29.0884 58.5218 24.4336 51.9595 24.4336 44.4961C24.4336 32.7924 35.8801 23.3047 50 23.3047C64.1199 23.3047 75.5664 32.7924 75.5664 44.4961Z" fill="white"/>
<defs>
<filter id="filter0_d" x="0" y="0" width="100" height="100" filterUnits="userSpaceOnUse" color-interpolation-filters="sRGB">
<feFlood flood-opacity="0" result="BackgroundImageFix"/>
<feColorMatrix in="SourceAlpha" type="matrix" values="0 0 0 0 0 0 0 0 0 0 0 0 0 0 0 0 0 0 127 0" result="hardAlpha"/>
<feOffset dy="4"/>
<feGaussianBlur stdDeviation="7.5"/>
<feColorMatrix type="matrix" values="0 0 0 0 0.733333 0 0 0 0 0.74902 0 0 0 0 0.835294 0 0 0 1 0"/>
<feBlend mode="normal" in2="BackgroundImageFix" result="effect1_dropShadow"/>
<feBlend mode="normal" in="SourceGraphic" in2="effect1_dropShadow" result="shape"/>
</filter>
<linearGradient id="paint0_linear" x1="50" y1="11" x2="50" y2="81" gradientUnits="userSpaceOnUse">
<stop stop-color="#5CF777"/>
<stop offset="1" stop-color="#0EBC29"/>
</linearGradient>
</defs>
</svg>
