<svg width="100" height="100" viewBox="0 0 100 100" fill="none" xmlns="http://www.w3.org/2000/svg">
<g filter="url(#filter0_d)">
<rect x="15" y="11" width="70" height="70" rx="10" fill="white"/>
</g>
<rect width="18.2954" height="28.6364" rx="9.14772" transform="matrix(-0.707107 0.707107 0.707107 0.707107 34.8135 17.876)" fill="url(#paint0_linear)" style="mix-blend-mode:multiply"/>
<rect x="48.0107" y="36.8525" width="18.2955" height="28.6364" rx="9.14773" transform="rotate(90 48.0107 36.8525)" fill="url(#paint1_linear)" style="mix-blend-mode:multiply"/>
<rect x="42.125" y="40.9385" width="18.2955" height="28.6364" rx="9.14773" transform="rotate(45 42.125 40.9385)" fill="url(#paint2_linear)" style="mix-blend-mode:multiply"/>
<rect x="40.8525" y="47.9883" width="18.2955" height="28.6364" rx="9.14773" fill="url(#paint3_linear)" style="mix-blend-mode:multiply"/>
<rect width="18.2955" height="28.6364" rx="9.14773" transform="matrix(-0.707107 0.707107 0.707107 0.707107 57.875 40.9385)" fill="url(#paint4_linear)" style="mix-blend-mode:multiply"/>
<rect x="80.625" y="36.8525" width="18.2955" height="28.6364" rx="9.14773" transform="rotate(90 80.625 36.8525)" fill="url(#paint5_linear)" style="mix-blend-mode:multiply"/>
<rect x="65.1865" y="17.876" width="18.2954" height="28.6363" rx="9.14772" transform="rotate(45 65.1865 17.876)" fill="url(#paint6_linear)" style="mix-blend-mode:multiply"/>
<rect x="40.8525" y="15.375" width="18.2955" height="28.6364" rx="9.14773" fill="url(#paint7_linear)" style="mix-blend-mode:multiply"/>
<defs>
<filter id="filter0_d" x="0" y="0" width="100" height="100" filterUnits="userSpaceOnUse" color-interpolation-filters="sRGB">
<feFlood flood-opacity="0" result="BackgroundImageFix"/>
<feColorMatrix in="SourceAlpha" type="matrix" values="0 0 0 0 0 0 0 0 0 0 0 0 0 0 0 0 0 0 127 0" result="hardAlpha"/>
<feOffset dy="4"/>
<feGaussianBlur stdDeviation="7.5"/>
<feColorMatrix type="matrix" values="0 0 0 0 0.733333 0 0 0 0 0.74902 0 0 0 0 0.835294 0 0 0 1 0"/>
<feBlend mode="normal" in2="BackgroundImageFix" result="effect1_dropShadow"/>
<feBlend mode="normal" in="SourceGraphic" in2="effect1_dropShadow" result="shape"/>
</filter>
<linearGradient id="paint0_linear" x1="9.14772" y1="0" x2="9.14772" y2="28.6364" gradientUnits="userSpaceOnUse">
<stop offset="0.0352257" stop-color="#FF7171"/>
<stop offset="1" stop-color="#EA1616" stop-opacity="0.6"/>
</linearGradient>
<linearGradient id="paint1_linear" x1="57.1585" y1="36.8525" x2="57.1585" y2="65.4889" gradientUnits="userSpaceOnUse">
<stop stop-color="#BB004F" stop-opacity="0.6"/>
<stop offset="1" stop-color="#D893C3"/>
</linearGradient>
<linearGradient id="paint2_linear" x1="51.2727" y1="40.9385" x2="51.2727" y2="69.5748" gradientUnits="userSpaceOnUse">
<stop stop-color="#825475" stop-opacity="0.6"/>
<stop offset="1" stop-color="#B297DF"/>
</linearGradient>
<linearGradient id="paint3_linear" x1="50.0003" y1="47.9883" x2="50.0003" y2="76.6246" gradientUnits="userSpaceOnUse">
<stop stop-color="#5842AD" stop-opacity="0.6"/>
<stop offset="1" stop-color="#70AADA"/>
</linearGradient>
<linearGradient id="paint4_linear" x1="9.14773" y1="0" x2="9.14773" y2="28.6364" gradientUnits="userSpaceOnUse">
<stop stop-color="#007E9A" stop-opacity="0.6"/>
<stop offset="1" stop-color="#80BF94"/>
</linearGradient>
<linearGradient id="paint5_linear" x1="89.7727" y1="36.8525" x2="89.7727" y2="65.4889" gradientUnits="userSpaceOnUse">
<stop stop-color="#C5D862"/>
<stop offset="1" stop-color="#42A963" stop-opacity="0.6"/>
</linearGradient>
<linearGradient id="paint6_linear" x1="74.3343" y1="17.876" x2="74.3343" y2="46.5123" gradientUnits="userSpaceOnUse">
<stop stop-color="#F6E552"/>
<stop offset="1" stop-color="#9AC73C" stop-opacity="0.6"/>
</linearGradient>
<linearGradient id="paint7_linear" x1="50.0003" y1="15.375" x2="50.0003" y2="44.0114" gradientUnits="userSpaceOnUse">
<stop stop-color="#FFA235"/>
<stop offset="1" stop-color="#CFBB09" stop-opacity="0.66"/>
</linearGradient>
</defs>
</svg>
