<svg width="85" height="84" viewBox="0 0 85 84" fill="none" xmlns="http://www.w3.org/2000/svg">
<path d="M6.71053 69.8532H9.07263C13.4747 80.0747 24.0326 83.8768 24.1579 84.0006C24.4363 84.0949 24.7385 84.0949 25.0168 84.0006C25.1421 84.0006 35.7537 80.1454 40.1021 69.8532H78.2895C80.0692 69.8532 81.7761 69.1545 83.0345 67.9109C84.293 66.6672 85 64.9804 85 63.2216V20.7795C85 19.0207 84.293 17.334 83.0345 16.0903C81.7761 14.8466 80.0692 14.148 78.2895 14.148H54.06L48.3158 2.68859C47.9063 1.86997 47.2704 1.18289 46.4817 0.707098C45.693 0.23131 44.7839 -0.0136714 43.86 0.000588916H6.71053C4.93078 0.000588916 3.22394 0.699271 1.96547 1.94293C0.707 3.1866 0 4.87336 0 6.63217L0 63.2216C0 64.9804 0.707 66.6672 1.96547 67.9109C3.22394 69.1545 4.93078 69.8532 6.71053 69.8532ZM2.68421 6.63217C2.68421 5.57689 3.10841 4.56482 3.86349 3.81863C4.61857 3.07243 5.64268 2.65322 6.71053 2.65322H27.7547C28.1714 2.64825 28.581 2.76029 28.9358 2.9763C29.2906 3.1923 29.576 3.50341 29.7589 3.87343L31.4232 7.07427L32.7295 9.65617L34.9663 14.148L35.6284 15.4743L35.9326 16.0579C36.0426 16.2797 36.2132 16.4668 36.425 16.5981C36.6368 16.7293 36.8816 16.7994 37.1316 16.8006H78.2895C79.3573 16.8006 80.3814 17.2198 81.1365 17.966C81.8916 18.7122 82.3158 19.7243 82.3158 20.7795V63.2216C82.3158 63.7442 82.2116 64.2616 82.0093 64.7443C81.807 65.2271 81.5104 65.6657 81.1365 66.0352C80.7626 66.4047 80.3188 66.6977 79.8303 66.8977C79.3418 67.0977 78.8182 67.2006 78.2895 67.2006H41.1579C41.8006 65.0051 42.1259 62.7308 42.1242 60.4452V55.7059H69.3421C69.6966 55.7013 70.0353 55.5601 70.286 55.3123C70.5367 55.0646 70.6796 54.7299 70.6842 54.3795V26.0848C70.6796 25.7345 70.5367 25.3998 70.286 25.152C70.0353 24.9043 69.6966 24.7631 69.3421 24.7585H15.6579C15.3034 24.7631 14.9647 24.9043 14.714 25.152C14.4633 25.3998 14.3204 25.7345 14.3158 26.0848V47.0406L7.92737 49.9762C7.69677 50.0837 7.50193 50.2539 7.36566 50.4668C7.22939 50.6798 7.15732 50.9267 7.15789 51.1787V60.4452C7.15619 62.7308 7.48152 65.0051 8.12421 67.2006H6.71053C6.18178 67.2006 5.65822 67.0977 5.16972 66.8977C4.68123 66.6977 4.23737 66.4047 3.86349 66.0352C3.48961 65.6657 3.19304 65.2271 2.9907 64.7443C2.78835 64.2616 2.68421 63.7442 2.68421 63.2216V6.63217ZM43.8421 2.65322C44.2588 2.64825 44.6684 2.76029 45.0231 2.9763C45.3779 3.1923 45.6634 3.50341 45.8463 3.87343L51.0716 14.148H37.9547L35.7895 9.7269H40.7821C41.1381 9.7269 41.4794 9.58717 41.7311 9.33844C41.9828 9.0897 42.1242 8.75235 42.1242 8.40059C42.1242 8.04883 41.9828 7.71147 41.7311 7.46274C41.4794 7.21401 41.1381 7.07427 40.7821 7.07427H34.3758L32.2105 2.68859L43.8421 2.65322ZM37.2389 69.8532C34.7725 74.5848 30.798 78.382 25.9295 80.6583V45.8557L39.3684 52.0275V60.4452C39.3785 62.7365 39.0284 65.0155 38.3305 67.2006C38.1695 67.6427 38.0263 68.1025 37.8653 68.5269C37.7042 68.9513 37.4716 69.4288 37.2568 69.8532H37.2389ZM23.2632 80.6406C18.4333 78.3307 14.4814 74.5493 11.9895 69.8532C11.7747 69.4288 11.5779 68.9867 11.3811 68.5269C11.1842 68.0671 11.0589 67.6427 10.9158 67.2006C10.1965 65.0196 9.83402 62.7391 9.8421 60.4452V52.0275L14.3158 49.9585L15.6579 49.3572L17 48.7383L23.2632 45.8557V80.6406ZM41.2832 49.9762L25.1779 42.5665H24.9274H24.6053C24.4985 42.5499 24.3899 42.5499 24.2832 42.5665C24.1999 42.558 24.1159 42.558 24.0326 42.5665L17 45.8027V27.4111H68V53.0532H42.0526V51.1787C42.0532 50.9267 41.9811 50.6798 41.8449 50.4668C41.7086 50.2539 41.5138 50.0837 41.2832 49.9762Z" fill="#27CA9D"/>
<path d="M8.50031 9.72685H10.2898C10.6457 9.72685 10.9871 9.58711 11.2388 9.33838C11.4905 9.08965 11.6319 8.75229 11.6319 8.40053C11.6319 8.04877 11.4905 7.71142 11.2388 7.46269C10.9871 7.21395 10.6457 7.07422 10.2898 7.07422H8.50031C8.14436 7.07422 7.80299 7.21395 7.5513 7.46269C7.2996 7.71142 7.1582 8.04877 7.1582 8.40053C7.1582 8.75229 7.2996 9.08965 7.5513 9.33838C7.80299 9.58711 8.14436 9.72685 8.50031 9.72685Z" fill="#27CA9D"/>
<path d="M15.6575 9.72685H17.447C17.803 9.72685 18.1443 9.58711 18.396 9.33838C18.6477 9.08965 18.7891 8.75229 18.7891 8.40053C18.7891 8.04877 18.6477 7.71142 18.396 7.46269C18.1443 7.21395 17.803 7.07422 17.447 7.07422H15.6575C15.3016 7.07422 14.9602 7.21395 14.7085 7.46269C14.4568 7.71142 14.3154 8.04877 14.3154 8.40053C14.3154 8.75229 14.4568 9.08965 14.7085 9.33838C14.9602 9.58711 15.3016 9.72685 15.6575 9.72685Z" fill="#27CA9D"/>
<path d="M22.8157 9.72685H24.6052C24.9612 9.72685 25.3025 9.58711 25.5542 9.33838C25.8059 9.08965 25.9473 8.75229 25.9473 8.40053C25.9473 8.04877 25.8059 7.71142 25.5542 7.46269C25.3025 7.21395 24.9612 7.07422 24.6052 7.07422H22.8157C22.4598 7.07422 22.1184 7.21395 21.8667 7.46269C21.615 7.71142 21.4736 8.04877 21.4736 8.40053C21.4736 8.75229 21.615 9.08965 21.8667 9.33838C22.1184 9.58711 22.4598 9.72685 22.8157 9.72685Z" fill="#27CA9D"/>
<path d="M63.5263 33.1583C63.5216 32.808 63.3787 32.4733 63.128 32.2256C62.8773 31.9778 62.5387 31.8366 62.1842 31.832H22.8157C22.4598 31.832 22.1184 31.9718 21.8667 32.2205C21.615 32.4692 21.4736 32.8066 21.4736 33.1583C21.4736 33.5101 21.615 33.8475 21.8667 34.0962C22.1184 34.3449 22.4598 34.4847 22.8157 34.4847H62.1842C62.5387 34.4801 62.8773 34.3389 63.128 34.0911C63.3787 33.8434 63.5216 33.5087 63.5263 33.1583Z" fill="#27CA9D"/>
<path d="M54.5792 40.2316C54.5745 39.8813 54.4316 39.5466 54.1809 39.2988C53.9302 39.0511 53.5916 38.9099 53.237 38.9053H51.4476C51.0916 38.9053 50.7503 39.045 50.4986 39.2937C50.2469 39.5425 50.1055 39.8798 50.1055 40.2316C50.1055 40.5834 50.2469 40.9207 50.4986 41.1694C50.7503 41.4182 51.0916 41.5579 51.4476 41.5579H53.237C53.5916 41.5533 53.9302 41.4121 54.1809 41.1644C54.4316 40.9166 54.5745 40.5819 54.5792 40.2316Z" fill="#27CA9D"/>
<path d="M47.4206 40.2316C47.416 39.8813 47.2731 39.5466 47.0224 39.2988C46.7717 39.0511 46.433 38.9099 46.0785 38.9053H37.1312C36.7752 38.9053 36.4338 39.045 36.1822 39.2937C35.9305 39.5425 35.7891 39.8798 35.7891 40.2316C35.7891 40.5834 35.9305 40.9207 36.1822 41.1694C36.4338 41.4182 36.7752 41.5579 37.1312 41.5579H46.0785C46.433 41.5533 46.7717 41.4121 47.0224 41.1644C47.2731 40.9166 47.416 40.5819 47.4206 40.2316Z" fill="#27CA9D"/>
<path d="M62.1837 38.9053H58.6048C58.2489 38.9053 57.9075 39.045 57.6558 39.2937C57.4041 39.5425 57.2627 39.8798 57.2627 40.2316C57.2627 40.5834 57.4041 40.9207 57.6558 41.1694C57.9075 41.4182 58.2489 41.5579 58.6048 41.5579H62.1837C62.5397 41.5579 62.8811 41.4182 63.1328 41.1694C63.3844 40.9207 63.5258 40.5834 63.5258 40.2316C63.5258 39.8798 63.3844 39.5425 63.1328 39.2937C62.8811 39.045 62.5397 38.9053 62.1837 38.9053Z" fill="#27CA9D"/>
<path d="M55.0261 45.9795H53.2366C52.8807 45.9795 52.5393 46.1192 52.2876 46.368C52.0359 46.6167 51.8945 46.954 51.8945 47.3058C51.8945 47.6576 52.0359 47.9949 52.2876 48.2437C52.5393 48.4924 52.8807 48.6321 53.2366 48.6321H55.0261C55.3821 48.6321 55.7234 48.4924 55.9751 48.2437C56.2268 47.9949 56.3682 47.6576 56.3682 47.3058C56.3682 46.954 56.2268 46.6167 55.9751 46.368C55.7234 46.1192 55.3821 45.9795 55.0261 45.9795Z" fill="#27CA9D"/>
<path d="M47.8689 45.9795H46.0794C45.7235 45.9795 45.3821 46.1192 45.1304 46.368C44.8787 46.6167 44.7373 46.954 44.7373 47.3058C44.7373 47.6576 44.8787 47.9949 45.1304 48.2437C45.3821 48.4924 45.7235 48.6321 46.0794 48.6321H47.8689C48.2248 48.6321 48.5662 48.4924 48.8179 48.2437C49.0696 47.9949 49.211 47.6576 49.211 47.3058C49.211 46.954 49.0696 46.6167 48.8179 46.368C48.5662 46.1192 48.2248 45.9795 47.8689 45.9795Z" fill="#27CA9D"/>
<path d="M62.1843 45.9795H60.3948C60.0389 45.9795 59.6975 46.1192 59.4458 46.368C59.1941 46.6167 59.0527 46.954 59.0527 47.3058C59.0527 47.6576 59.1941 47.9949 59.4458 48.2437C59.6975 48.4924 60.0389 48.6321 60.3948 48.6321H62.1843C62.5403 48.6321 62.8816 48.4924 63.1333 48.2437C63.385 47.9949 63.5264 47.6576 63.5264 47.3058C63.5264 46.954 63.385 46.6167 63.1333 46.368C62.8816 46.1192 62.5403 45.9795 62.1843 45.9795Z" fill="#27CA9D"/>
<path d="M15.6575 58.4638C16.012 58.4592 16.3507 58.318 16.6014 58.0702C16.8521 57.8225 16.995 57.4878 16.9996 57.1374V56.0941C17.0182 55.965 17.0182 55.8341 16.9996 55.705C16.9007 55.4354 16.717 55.2042 16.4755 55.0451C16.2341 54.886 15.9474 54.8074 15.6575 54.8208C15.4655 54.8238 15.2763 54.8681 15.1033 54.9505C14.9302 55.033 14.7774 55.1516 14.6554 55.2983C14.4453 55.5334 14.3251 55.8336 14.3154 56.1471V57.1905C14.3336 57.5315 14.4824 57.8529 14.7317 58.0894C14.981 58.3259 15.312 58.4597 15.6575 58.4638Z" fill="#27CA9D"/>
<path d="M18.7351 67.2001C17.6493 65.8183 17.0241 64.1377 16.9456 62.39C16.9316 62.0413 16.7791 61.7121 16.5212 61.4737C16.2633 61.2354 15.9207 61.1071 15.5677 61.1167C15.3907 61.1212 15.2163 61.1607 15.055 61.233C14.8937 61.3052 14.7487 61.4087 14.6285 61.5373C14.5084 61.6659 14.4156 61.817 14.3556 61.9817C14.2956 62.1464 14.2697 62.3213 14.2793 62.4961C14.3549 64.1429 14.8076 65.7513 15.6035 67.2001C15.8312 67.6615 16.0944 68.1049 16.3909 68.5264C16.6813 68.9464 16.9981 69.348 17.3393 69.7289L17.5183 69.8527C17.7461 70.0514 18.0376 70.1642 18.3414 70.171C18.6494 70.1584 18.9447 70.0466 19.1825 69.8527C19.4302 69.607 19.5766 69.279 19.5931 68.9325C19.6096 68.586 19.4952 68.2459 19.2719 67.9782C19.1109 67.7129 18.9319 67.4477 18.7351 67.2001Z" fill="#27CA9D"/>
</svg>
