<svg width="100" height="100" viewBox="0 0 100 100" fill="none" xmlns="http://www.w3.org/2000/svg">
<g filter="url(#filter0_d)">
<rect x="15" y="11" width="70" height="70" rx="10" fill="white"/>
</g>
<circle cx="50" cy="46" r="30.625" fill="url(#paint0_linear)"/>
<rect x="49.5898" y="17.5625" width="0.820312" height="5.19531" fill="white"/>
<rect x="49.5898" y="69.2422" width="0.820312" height="5.19531" fill="white"/>
<rect x="44.6582" y="18.0654" width="0.820312" height="5.19531" transform="rotate(-9.99999 44.6582 18.0654)" fill="white"/>
<rect width="0.820311" height="5.19532" transform="matrix(0.984808 -0.173649 0.173648 0.984808 53.6328 68.96)" fill="white"/>
<rect x="39.8887" y="19.418" width="0.820311" height="5.19531" transform="rotate(-20 39.8887 19.418)" fill="white"/>
<rect x="57.5645" y="67.9805" width="0.820314" height="5.19532" transform="rotate(-20 57.5645 67.9805)" fill="white"/>
<rect width="0.820311" height="5.19532" transform="matrix(0.939693 0.34202 0.34202 -0.939693 39.8887 72.582)" fill="white"/>
<rect width="0.820314" height="5.19531" transform="matrix(0.939693 0.342019 0.342021 -0.939692 57.5645 24.0195)" fill="white"/>
<rect width="0.820312" height="5.19531" transform="matrix(0.984808 0.173648 0.173648 -0.984808 44.6582 73.9346)" fill="white"/>
<rect width="0.820311" height="5.19531" transform="matrix(0.984808 0.173649 0.173648 -0.984808 53.6328 23.04)" fill="white"/>
<rect x="35.4258" y="21.5771" width="0.820314" height="5.19531" transform="rotate(-30 35.4258 21.5771)" fill="white"/>
<rect x="61.2656" y="66.333" width="0.820312" height="5.19531" transform="rotate(-30 61.2656 66.333)" fill="white"/>
<rect width="0.820314" height="5.19532" transform="matrix(0.866025 0.5 0.5 -0.866025 35.4258 70.4229)" fill="white"/>
<rect width="0.820312" height="5.19531" transform="matrix(0.866025 0.5 0.5 -0.866026 61.2656 25.667)" fill="white"/>
<rect x="31.4062" y="24.4795" width="0.820312" height="5.19531" transform="rotate(-40 31.4062 24.4795)" fill="white"/>
<rect x="64.626" y="64.0684" width="0.820311" height="5.1953" transform="rotate(-40 64.626 64.0684)" fill="white"/>
<rect width="0.820313" height="5.19532" transform="matrix(0.766044 0.642788 0.642787 -0.766045 31.4062 67.5205)" fill="white"/>
<rect width="0.820311" height="5.1953" transform="matrix(0.766044 0.642788 0.642787 -0.766045 64.626 27.9316)" fill="white"/>
<rect x="27.9512" y="28.0342" width="0.820313" height="5.19531" transform="rotate(-50 27.9512 28.0342)" fill="white"/>
<rect x="67.54" y="61.2539" width="0.820313" height="5.19532" transform="rotate(-50 67.54 61.2539)" fill="white"/>
<rect width="0.820313" height="5.19531" transform="matrix(0.642788 0.766044 0.766044 -0.642788 27.9512 63.9658)" fill="white"/>
<rect width="0.820312" height="5.19531" transform="matrix(0.642788 0.766044 0.766045 -0.642787 67.54 30.7461)" fill="white"/>
<rect x="25.167" y="32.1367" width="0.820314" height="5.19531" transform="rotate(-60 25.167 32.1367)" fill="white"/>
<rect x="69.9229" y="57.9766" width="0.820312" height="5.19531" transform="rotate(-60 69.9229 57.9766)" fill="white"/>
<rect width="0.820312" height="5.19531" transform="matrix(0.5 0.866025 0.866025 -0.5 25.167 59.8633)" fill="white"/>
<rect width="0.820314" height="5.19531" transform="matrix(0.499999 0.866026 0.866025 -0.500001 69.9229 34.0234)" fill="white"/>
<rect x="23.1377" y="36.6592" width="0.820313" height="5.19531" transform="rotate(-70 23.1377 36.6592)" fill="white"/>
<rect width="0.820314" height="5.19531" transform="matrix(0.342019 -0.939693 0.939692 0.342021 71.7012 54.335)" fill="white"/>
<rect width="0.820312" height="5.19531" transform="matrix(0.34202 0.939693 0.939693 -0.34202 23.1377 55.3408)" fill="white"/>
<rect width="0.820313" height="5.19531" transform="matrix(0.342019 0.939693 0.939692 -0.342021 71.7012 37.665)" fill="white"/>
<rect x="21.9229" y="41.4658" width="0.82031" height="5.19531" transform="rotate(-80 21.9229 41.4658)" fill="white"/>
<rect x="72.8174" y="50.4395" width="0.82031" height="5.1953" transform="rotate(-80 72.8174 50.4395)" fill="white"/>
<rect width="0.820312" height="5.19531" transform="matrix(0.173648 0.984808 0.984808 -0.173648 21.9229 50.5342)" fill="white"/>
<rect width="0.820315" height="5.1953" transform="matrix(0.173647 0.984808 0.984808 -0.173649 72.8174 41.5605)" fill="white"/>
<rect x="21.5625" y="46.4102" width="0.820312" height="5.19531" transform="rotate(-90 21.5625 46.4102)" fill="white"/>
<rect x="73.2422" y="46.4102" width="0.820312" height="5.19531" transform="rotate(-90 73.2422 46.4102)" fill="white"/>
<rect x="47.1133" y="17.707" width="0.820314" height="3.28125" transform="rotate(-5 47.1133 17.707)" fill="white"/>
<rect x="51.7842" y="71.0967" width="0.820314" height="3.28125" transform="rotate(-5.00001 51.7842 71.0967)" fill="white"/>
<rect x="52.0703" y="17.6348" width="0.820314" height="3.28125" transform="rotate(4.99999 52.0703 17.6348)" fill="white"/>
<rect x="47.3994" y="71.0244" width="0.820311" height="3.28125" transform="rotate(4.99998 47.3994 71.0244)" fill="white"/>
<rect x="42.2441" y="18.6377" width="0.820313" height="3.28125" transform="rotate(-15 42.2441 18.6377)" fill="white"/>
<rect x="56.1152" y="70.4053" width="0.820311" height="3.28125" transform="rotate(-15 56.1152 70.4053)" fill="white"/>
<rect width="0.820313" height="3.28125" transform="matrix(0.965926 0.258819 0.258819 -0.965926 42.2441 73.3623)" fill="white"/>
<rect width="0.820312" height="3.28125" transform="matrix(0.965926 0.258819 0.258819 -0.965926 56.1152 21.5947)" fill="white"/>
<rect x="37.6104" y="20.4004" width="0.820311" height="3.28125" transform="rotate(-25 37.6104 20.4004)" fill="white"/>
<rect x="60.2598" y="68.9727" width="0.820313" height="3.28125" transform="rotate(-25 60.2598 68.9727)" fill="white"/>
<rect width="0.820311" height="3.28124" transform="matrix(0.906308 0.422618 0.422618 -0.906308 37.6104 71.5996)" fill="white"/>
<rect width="0.820313" height="3.28125" transform="matrix(0.906308 0.422618 0.422619 -0.906308 60.2598 23.0273)" fill="white"/>
<rect x="33.3525" y="22.9404" width="0.820313" height="3.28125" transform="rotate(-35 33.3525 22.9404)" fill="white"/>
<rect x="64.0928" y="66.8418" width="0.820313" height="3.28125" transform="rotate(-35 64.0928 66.8418)" fill="white"/>
<rect width="0.820313" height="3.28125" transform="matrix(0.819152 0.573576 0.573576 -0.819152 33.3525 69.0596)" fill="white"/>
<rect width="0.820312" height="3.28125" transform="matrix(0.819152 0.573576 0.573577 -0.819152 64.0928 25.1582)" fill="white"/>
<rect x="29.6016" y="26.1816" width="0.820313" height="3.28125" transform="rotate(-45 29.6016 26.1816)" fill="white"/>
<rect x="67.498" y="64.0781" width="0.820314" height="3.28126" transform="rotate(-45 67.498 64.0781)" fill="white"/>
<rect x="26.4697" y="30.0254" width="0.820313" height="3.28125" transform="rotate(-55 26.4697 30.0254)" fill="white"/>
<rect width="0.820313" height="3.28125" transform="matrix(0.573575 -0.819153 0.819151 0.573578 70.3711 60.7656)" fill="white"/>
<rect width="0.82031" height="3.28125" transform="matrix(0.573577 0.819152 0.819152 -0.573576 26.4697 61.9746)" fill="white"/>
<rect width="0.820312" height="3.28124" transform="matrix(0.573576 0.819152 0.819152 -0.573577 70.3711 31.2344)" fill="white"/>
<rect x="24.0537" y="34.3535" width="0.820313" height="3.28125" transform="rotate(-65 24.0537 34.3535)" fill="white"/>
<rect width="0.820314" height="3.28125" transform="matrix(0.422617 -0.906308 0.906307 0.42262 72.626 57.0029)" fill="white"/>
<rect width="0.820309" height="3.28125" transform="matrix(0.422618 0.906308 0.906308 -0.422618 24.0537 57.6465)" fill="white"/>
<rect width="0.82031" height="3.28124" transform="matrix(0.422619 0.906308 0.906308 -0.422618 72.626 34.9971)" fill="white"/>
<rect x="22.4258" y="39.0361" width="0.820313" height="3.28125" transform="rotate(-75 22.4258 39.0361)" fill="white"/>
<rect width="0.820313" height="3.28125" transform="matrix(0.258818 -0.965926 0.965926 0.25882 74.1934 52.9072)" fill="white"/>
<rect width="0.820312" height="3.28125" transform="matrix(0.258819 0.965926 0.965926 -0.258819 22.4258 52.9639)" fill="white"/>
<rect width="0.820315" height="3.28124" transform="matrix(0.258818 0.965926 0.965925 -0.258821 74.1934 39.0928)" fill="white"/>
<rect x="21.6348" y="43.9297" width="0.820314" height="3.28125" transform="rotate(-85 21.6348 43.9297)" fill="white"/>
<rect width="0.820302" height="3.28125" transform="matrix(0.0871568 -0.996195 0.996195 0.0871546 75.0244 48.6006)" fill="white"/>
<rect width="0.820314" height="3.28125" transform="matrix(0.0871559 0.996195 0.996195 -0.0871556 21.6348 48.0703)" fill="white"/>
<rect width="0.820311" height="3.28125" transform="matrix(0.0871561 0.996195 0.996195 -0.0871554 75.0244 43.3994)" fill="white"/>
<rect x="21.707" y="48.8867" width="0.820314" height="3.28125" transform="rotate(-95 21.707 48.8867)" fill="white"/>
<rect x="75.0967" y="44.2158" width="0.820311" height="3.28125" transform="rotate(-95 75.0967 44.2158)" fill="white"/>
<rect width="0.820314" height="3.28125" transform="matrix(-0.0871557 0.996195 0.996195 0.0871557 21.707 43.1133)" fill="white"/>
<rect width="0.820314" height="3.28125" transform="matrix(-0.0871555 0.996195 0.996195 0.0871559 75.0967 47.7842)" fill="white"/>
<g filter="url(#filter1_d)">
<path d="M70.1083 25.8915L51.9334 47.9333L48.0665 44.0664L70.1083 25.8915Z" fill="#FE3C30"/>
<path d="M29.8915 66.1083L51.9334 47.9334L48.0664 44.0665L29.8915 66.1083Z" fill="white"/>
</g>
<defs>
<filter id="filter0_d" x="0" y="0" width="100" height="100" filterUnits="userSpaceOnUse" color-interpolation-filters="sRGB">
<feFlood flood-opacity="0" result="BackgroundImageFix"/>
<feColorMatrix in="SourceAlpha" type="matrix" values="0 0 0 0 0 0 0 0 0 0 0 0 0 0 0 0 0 0 127 0" result="hardAlpha"/>
<feOffset dy="4"/>
<feGaussianBlur stdDeviation="7.5"/>
<feColorMatrix type="matrix" values="0 0 0 0 0.733333 0 0 0 0 0.74902 0 0 0 0 0.835294 0 0 0 1 0"/>
<feBlend mode="normal" in2="BackgroundImageFix" result="effect1_dropShadow"/>
<feBlend mode="normal" in="SourceGraphic" in2="effect1_dropShadow" result="shape"/>
</filter>
<filter id="filter1_d" x="25.8291" y="25.8916" width="48.3417" height="48.3417" filterUnits="userSpaceOnUse" color-interpolation-filters="sRGB">
<feFlood flood-opacity="0" result="BackgroundImageFix"/>
<feColorMatrix in="SourceAlpha" type="matrix" values="0 0 0 0 0 0 0 0 0 0 0 0 0 0 0 0 0 0 127 0" result="hardAlpha"/>
<feOffset dy="4.0625"/>
<feGaussianBlur stdDeviation="2.03125"/>
<feColorMatrix type="matrix" values="0 0 0 0 0 0 0 0 0 0 0 0 0 0 0 0 0 0 0.25 0"/>
<feBlend mode="normal" in2="BackgroundImageFix" result="effect1_dropShadow"/>
<feBlend mode="normal" in="SourceGraphic" in2="effect1_dropShadow" result="shape"/>
</filter>
<linearGradient id="paint0_linear" x1="50" y1="15.4692" x2="50" y2="76.5308" gradientUnits="userSpaceOnUse">
<stop stop-color="#1BC9FA"/>
<stop offset="0.760051" stop-color="#1F70F0"/>
</linearGradient>
</defs>
</svg>
